<?xml version="1.0" encoding="UTF-8" standalone="no" ?>
<!DOCTYPE svg PUBLIC "-//W3C//DTD SVG 1.1//EN" "http://www.w3.org/Graphics/SVG/1.1/DTD/svg11.dtd">
<svg xmlns="http://www.w3.org/2000/svg" xmlns:xlink="http://www.w3.org/1999/xlink" version="1.1" width="1080" height="1080" viewBox="0 0 1080 1080" xml:space="preserve" preserveAspectRatio="none">
<desc>Created with Fabric.js 5.2.4</desc>
<defs>
</defs>
<g transform="matrix(1 0 0 1 540 540)" id="5114b5a8-d036-442f-ac2a-44c1436a6f43"  >
<rect style="stroke: none; stroke-width: 1; stroke-dasharray: none; stroke-linecap: butt; stroke-dashoffset: 0; stroke-linejoin: miter; stroke-miterlimit: 4; fill: rgb(255,255,255); fill-rule: nonzero; opacity: 1; visibility: hidden;" vector-effect="non-scaling-stroke"  x="-540" y="-540" rx="0" ry="0" width="1080" height="1080" />
</g>
<g transform="matrix(1 0 0 1 540 540)" id="da739cb6-b116-4d66-974c-fbec5ab1ee68"  >
</g>
<g transform="matrix(30 0 0 30 537.75 643.23)"  >
<path style="stroke: none; stroke-width: 1; stroke-dasharray: none; stroke-linecap: butt; stroke-dashoffset: 0; stroke-linejoin: miter; stroke-miterlimit: 4; fill: #964B00; fill-rule: nonzero; opacity: 1;" vector-effect="non-scaling-stroke"  transform=" translate(-17.93, -21.44)" d="M 33.793 17 C 33.793 17 32.476 20 18 20 C 3.523 20 1.973 17 1.973 17 C 1.973 17 -1 22.117 4.802 25 C 9.04 27.105 15.718 24.869 17.525 24.186 C 19.516 24.869 26.799 27.009999999999998 31.082 25 C 36.944 22.249 33.793 17 33.793 17 z" stroke-linecap="round" />
</g>
<g transform="matrix(9.86 0 0 1 540 761.33)" id="edb9da6c-af3e-4035-ae51-1e5a663d32e9"  >
<circle style="stroke: rgb(0,0,0); stroke-width: 0; stroke-dasharray: none; stroke-linecap: butt; stroke-dashoffset: 0; stroke-linejoin: miter; stroke-miterlimit: 4; fill: #964B00; fill-rule: nonzero; opacity: 1;" vector-effect="non-scaling-stroke"  cx="0" cy="0" r="35" />
</g>
</svg>