<?xml version="1.0" encoding="UTF-8" standalone="no" ?>
<!DOCTYPE svg PUBLIC "-//W3C//DTD SVG 1.1//EN" "http://www.w3.org/Graphics/SVG/1.1/DTD/svg11.dtd">
<svg xmlns="http://www.w3.org/2000/svg" xmlns:xlink="http://www.w3.org/1999/xlink" version="1.1" width="1080" height="300" viewBox="0 0 1080 300" xml:space="preserve">
<desc>Created with Fabric.js 5.2.4</desc>
<defs>
</defs>
<rect x="0" y="0" width="100%" height="100%" fill="transparent"></rect>
<g transform="matrix(1 0 0 1 540 150)" id="d9fb7c21-2879-499a-8e08-617b8326f191"  >
<rect style="stroke: none; stroke-width: 1; stroke-dasharray: none; stroke-linecap: butt; stroke-dashoffset: 0; stroke-linejoin: miter; stroke-miterlimit: 4; fill: rgb(255,255,255); fill-rule: nonzero; opacity: 1; visibility: hidden;" vector-effect="non-scaling-stroke"  x="-540" y="-150" rx="0" ry="0" width="1080" height="300" />
</g>
<g transform="matrix(0 0 0 0 0 0)" id="9fcdaa5b-bb9a-4064-94cf-fa2f84d4ea90"  >
</g>
<g transform="matrix(0 0 0 0 0 0)"  >
<g style=""   >
</g>
</g>
<g transform="matrix(0.83 0 0 0.22 540 268.39)"  >
<path style="stroke: none; stroke-width: 1; stroke-dasharray: none; stroke-linecap: butt; stroke-dashoffset: 0; stroke-linejoin: miter; stroke-miterlimit: 4; fill: rgb(0,114,187); fill-opacity: 0.7; fill-rule: nonzero; opacity: 1;" vector-effect="non-scaling-stroke"  transform=" translate(-660, -311.5)" d="M 0 192 C 220 100 440 100 660 192 C 880 290 1100 290 1320 192 L 1320 500 L 0 500" stroke-linecap="round" />
</g>
<g transform="matrix(0.83 0 0 0.18 540 264.42)"  >
<path style="stroke: none; stroke-width: 1; stroke-dasharray: none; stroke-linecap: butt; stroke-dashoffset: 0; stroke-linejoin: miter; stroke-miterlimit: 4; fill: rgb(78,255,251); fill-opacity: 0.7; fill-rule: nonzero; opacity: 1;" vector-effect="non-scaling-stroke"  transform=" translate(-660, -311.5)" d="M 0 192 C 220 100 440 100 660 192 C 880 290 1100 290 1320 192 L 1320 500 L 0 500" stroke-linecap="round" />
</g>
<g transform="matrix(0.83 0 0 0.18 540 269.34)"  >
<path style="stroke: none; stroke-width: 1; stroke-dasharray: none; stroke-linecap: butt; stroke-dashoffset: 0; stroke-linejoin: miter; stroke-miterlimit: 4; fill: rgb(0,137,200); fill-opacity: 0.7; fill-rule: nonzero; opacity: 1;" vector-effect="non-scaling-stroke"  transform=" translate(-660, -311.5)" d="M 0 192 C 220 100 440 100 660 192 C 880 290 1100 290 1320 192 L 1320 500 L 0 500" stroke-linecap="round" />
</g>
<g transform="matrix(0.83 0 0 0.22 540 270.9)"  >
<path style="stroke: none; stroke-width: 1; stroke-dasharray: none; stroke-linecap: butt; stroke-dashoffset: 0; stroke-linejoin: miter; stroke-miterlimit: 4; fill: rgb(0,210,211); fill-opacity: 0.7; fill-rule: nonzero; opacity: 1;" vector-effect="non-scaling-stroke"  transform=" translate(-660, -311.5)" d="M 0 192 C 220 100 440 100 660 192 C 880 290 1100 290 1320 192 L 1320 500 L 0 500" stroke-linecap="round" />
</g>
</svg>