<?xml version="1.0" encoding="UTF-8" standalone="no" ?>
<!DOCTYPE svg PUBLIC "-//W3C//DTD SVG 1.1//EN" "http://www.w3.org/Graphics/SVG/1.1/DTD/svg11.dtd">
<svg xmlns="http://www.w3.org/2000/svg" xmlns:xlink="http://www.w3.org/1999/xlink" version="1.1" width="1080" height="1080" viewBox="-25.71 -21.43 1080 1080" xml:space="preserve">
<desc>Created with Fabric.js 5.2.4</desc>
<defs>
</defs>
<g transform="matrix(1 0 0 1 540 540)" id="bc752272-571a-41a9-8c81-92413248f573"  >
<rect style="stroke: none; stroke-width: 1; stroke-dasharray: none; stroke-linecap: butt; stroke-dashoffset: 0; stroke-linejoin: miter; stroke-miterlimit: 4; fill: rgb(255,255,255); fill-rule: nonzero; opacity: 1; visibility: hidden;" vector-effect="non-scaling-stroke"  x="-540" y="-540" rx="0" ry="0" width="1080" height="1080" />
</g>
<g transform="matrix(1 0 0 1 540 540)" id="efbb32fb-ca89-4b31-b586-a1969a9a02c5"  >
</g>
<g transform="matrix(0.82 0 0 0.48 540 653.64)"  >
<path style="stroke: none; stroke-width: 1; stroke-dasharray: none; stroke-linecap: butt; stroke-dashoffset: 0; stroke-linejoin: miter; stroke-miterlimit: 4; fill: rgb(0,114,187); fill-opacity: 0.7; fill-rule: nonzero; opacity: 1;" vector-effect="non-scaling-stroke"  transform=" translate(-660, -311.5)" d="M 0 192 C 220 100 440 100 660 192 C 880 290 1100 290 1320 192 L 1320 500 L 0 500" stroke-linecap="round" />
</g>
<g transform="matrix(0.82 0 0 0.47 540 655.6)"  >
<path style="stroke: none; stroke-width: 1; stroke-dasharray: none; stroke-linecap: butt; stroke-dashoffset: 0; stroke-linejoin: miter; stroke-miterlimit: 4; fill: rgb(78,255,251); fill-opacity: 0.7; fill-rule: nonzero; opacity: 1;" vector-effect="non-scaling-stroke"  transform=" translate(-660, -311.5)" d="M 0 192 C 220 100 440 100 660 192 C 880 290 1100 290 1320 192 L 1320 500 L 0 500" stroke-linecap="round" />
</g>
<g transform="matrix(0.82 0 0 0.47 540 655.59)"  >
<path style="stroke: none; stroke-width: 1; stroke-dasharray: none; stroke-linecap: butt; stroke-dashoffset: 0; stroke-linejoin: miter; stroke-miterlimit: 4; fill: rgb(0,137,200); fill-opacity: 0.7; fill-rule: nonzero; opacity: 1;" vector-effect="non-scaling-stroke"  transform=" translate(-660, -311.5)" d="M 0 192 C 220 100 440 100 660 192 C 880 290 1100 290 1320 192 L 1320 500 L 0 500" stroke-linecap="round" />
</g>
<g transform="matrix(0.82 0 0 0.46 540 653.63)"  >
<path style="stroke: none; stroke-width: 1; stroke-dasharray: none; stroke-linecap: butt; stroke-dashoffset: 0; stroke-linejoin: miter; stroke-miterlimit: 4; fill: rgb(0,210,211); fill-opacity: 0.7; fill-rule: nonzero; opacity: 1;" vector-effect="non-scaling-stroke"  transform=" translate(-660, -311.5)" d="M 0 192 C 220 100 440 100 660 192 C 880 290 1100 290 1320 192 L 1320 500 L 0 500" stroke-linecap="round" />
</g>
</svg>